<?xml version="1.0" encoding="UTF-8"?>
<svg id="Layer_2" data-name="Layer 2" xmlns="http://www.w3.org/2000/svg" viewBox="0 0 1502.68 337.31">
  <defs>
    <style>
      .cls-1 {
        fill: #fff;
      }
    </style>
  </defs>
  <g id="Layer_1-2" data-name="Layer 1">
    <g>
      <path class="cls-1" d="M367.89,132.98c-4.99-2.89-10.93-5.51-17.99-5.51-27.68,0-73.04,42.48-147.1,137.74-32.5,39.69-58.88,60.09-79.34,70.94h167.65l97.04-168.07-20.26-35.09Z"/>
      <path class="cls-1" d="M182.96,249.38c55.28-71.12,93.34-111.73,123.33-131.62,15.83-10.49,30.07-15.59,43.53-15.59.1,0,.19.01.29.01l-12.19-21.11-.16-.1c-5.4-3.33-12-6.74-20.05-6.74-27.68,0-73.04,42.48-147.09,137.74-44.35,54.17-77.32,72.41-99.39,79.47l17.82,30.87c18.08-4.24,48.41-17.34,93.92-72.92Z"/>
      <path class="cls-1" d="M140.04,158.32c-44.58,54.45-77.65,72.6-99.73,79.58l17.82,30.86c18.22-4.57,48.19-18.33,92.64-72.62,55.28-71.12,93.34-111.74,123.33-131.62,15.83-10.49,30.07-15.59,43.52-15.59.59,0,1.18.05,1.78.07l-12.67-21.94c-5.31-3.25-11.77-6.47-19.6-6.47-27.68,0-73.04,42.48-147.1,137.74Z"/>
      <path class="cls-1" d="M120.2,142.49C175.48,71.37,213.53,30.75,243.53,10.87c7.14-4.73,13.94-8.31,20.5-10.87H97.04L0,168.07l27.2,47.12c18.19-4.48,48.26-18.07,92.99-72.7Z"/>
      <g>
        <path class="cls-1" d="M496.7,69.75v31.5h70.2v36h-70.2v54.23h-46.8V33.74h122.41v36h-75.6Z"/>
        <path class="cls-1" d="M586.62,191.48v-127.26h37.76v127.26h-37.76Z"/>
        <path class="cls-1" d="M699.89,157.17h-19.97v34.31h-37.76v-127.26h59.36c34.13,0,53.73,16.34,53.73,45.2,0,18.88-7.62,32.68-21.42,40.48l25.78,41.57h-42.84l-16.88-34.31ZM701.52,128.12c11.26,0,17.79-6.17,17.79-17.61s-6.53-17.25-17.79-17.25h-21.6v34.85h21.6Z"/>
        <path class="cls-1" d="M879.24,77.29l-13.98,29.05c-13.07-7.44-31.59-14.16-42.3-14.16-6.35,0-10.53,2.18-10.53,6.9,0,18.7,66.44,7.62,66.44,53.55,0,27.05-23.96,39.94-52.46,39.94-21.6,0-45.2-7.62-61.18-20.15l14.16-28.68c13.07,11.07,34.31,19.42,47.38,19.42,7.99,0,13.07-2.72,13.07-8.53,0-19.24-66.44-7.08-66.44-51.92,0-24.51,20.88-40.12,52.65-40.12,19.42,0,39.39,5.81,53.19,14.7Z"/>
        <path class="cls-1" d="M961.46,94.36v97.12h-37.94v-97.12h-36.85v-30.14h111.83v30.14h-37.03Z"/>
        <path class="cls-1" d="M1157.57,60.3l-27,31.95c-9.9-12.6-24.53-20.93-37.58-20.93-21.38,0-37.58,17.33-37.58,40.5s16.2,40.73,37.58,40.73c12.15,0,26.78-7.2,37.58-18.23l27,28.8c-17.1,18.45-42.98,30.38-66.83,30.38-47.93,0-83.26-34.65-83.26-81.23s36-79.88,84.83-79.88c23.85,0,49.28,10.8,65.25,27.9Z"/>
        <path class="cls-1" d="M1198.98,171.15l-7.62,20.33h-38.85l54.28-127.26h38.85l52.46,127.26h-40.3l-7.44-20.33h-51.38ZM1225.13,101.98l-15.61,41.57h30.86l-15.25-41.57Z"/>
        <path class="cls-1" d="M1398.48,159.89v31.59h-91.13v-127.26h37.76v95.67h53.37Z"/>
        <path class="cls-1" d="M1502.68,159.89v31.59h-91.13v-127.26h37.76v95.67h53.37Z"/>
      </g>
      <g>
        <path class="cls-1" d="M542.82,335.83l-.14-68.51-32.7,56.7h-8.24l-32.7-55.82v67.63h-17.63v-103.36h15.21l39.52,68.51,38.81-68.51h15.21l.14,103.36h-17.48Z"/>
        <path class="cls-1" d="M661.8,319.74v16.09h-74.63v-103.36h72.64v16.09h-54.16v26.87h48.05v15.8h-48.05v28.5h56.15Z"/>
        <path class="cls-1" d="M674.87,284.15c0-30.86,22.74-53.16,53.31-53.16,16.21,0,30.14,6.05,39.38,17.28l-11.94,11.67c-7.25-8.12-16.21-12.11-26.58-12.11-20.61,0-35.54,15.06-35.54,36.32s14.93,36.32,35.54,36.32c10.38,0,19.33-3.99,26.58-12.26l11.94,11.81c-9.24,11.22-23.17,17.28-39.52,17.28-30.42,0-53.16-22.3-53.16-53.16Z"/>
        <path class="cls-1" d="M873.74,232.47v103.36h-18.48v-44.3h-51.46v44.3h-18.48v-103.36h18.48v42.67h51.46v-42.67h18.48Z"/>
        <path class="cls-1" d="M965,311.91h-49.75l-9.81,23.92h-19.05l44.78-103.36h18.2l44.92,103.36h-19.33l-9.95-23.92ZM958.89,296.85l-18.76-45.18-18.62,45.18h37.39Z"/>
        <path class="cls-1" d="M1095.35,232.47v103.36h-15.21l-54.87-69.99v69.99h-18.34v-103.36h15.21l54.87,69.99v-69.99h18.34Z"/>
        <path class="cls-1" d="M1122.08,232.47h18.48v103.36h-18.48v-103.36Z"/>
        <path class="cls-1" d="M1160.31,284.15c0-30.86,22.74-53.16,53.31-53.16,16.21,0,30.14,6.05,39.38,17.28l-11.94,11.67c-7.25-8.12-16.21-12.11-26.58-12.11-20.61,0-35.54,15.06-35.54,36.32s14.93,36.32,35.54,36.32c10.38,0,19.33-3.99,26.58-12.26l11.94,11.81c-9.24,11.22-23.17,17.28-39.52,17.28-30.42,0-53.16-22.3-53.16-53.16Z"/>
        <path class="cls-1" d="M1333.17,311.91h-49.75l-9.81,23.92h-19.05l44.78-103.36h18.2l44.92,103.36h-19.33l-9.95-23.92ZM1327.06,296.85l-18.76-45.18-18.62,45.18h37.39Z"/>
        <path class="cls-1" d="M1375.1,232.47h18.48v87.12h52.03v16.24h-70.51v-103.36Z"/>
      </g>
      <g>
        <path class="cls-1" d="M1472.82,320.08h-5v-2.23h12.07v2.23h-5v15.71h-2.06v-15.71Z"/>
        <path class="cls-1" d="M1495.69,335.8l-.02-13.07-5.27,10.89h-.96l-5.27-10.82v13h-2v-17.94h1.71l6.09,12.61,6-12.61h1.71l.02,17.94h-2Z"/>
      </g>
    </g>
  </g>
</svg>