<?xml version="1.0" encoding="UTF-8"?>
<svg id="Layer_1" data-name="Layer 1" xmlns="http://www.w3.org/2000/svg" viewBox="0 0 1080 339.464">
  <defs>
    <style>
      .cls-1 {
        fill: #00558c;
      }

      .cls-2 {
        fill: #1a4120;
      }
    </style>
  </defs>
  <path class="cls-2" d="M294.94,151.706c-3.194-1.849-6.995-3.523-11.509-3.523-17.708,0-46.733,27.178-94.111,88.123-20.791,25.395-37.669,38.446-50.764,45.386h107.263l62.085-107.534-12.964-22.453Z"/>
  <path class="cls-1" d="M176.625,226.178c35.368-45.502,59.716-71.488,78.904-84.207,10.128-6.712,19.236-9.976,27.848-9.976.062,0,.125.007.187.007l-7.798-13.507-.104-.064c-3.453-2.133-7.677-4.314-12.83-4.314-17.708,0-46.732,27.178-94.109,88.123-28.376,34.658-49.467,46.33-63.59,50.844l11.402,19.749c11.569-2.714,30.973-11.095,60.09-46.656Z"/>
  <path class="cls-1" d="M149.161,167.918c-28.522,34.84-49.681,46.448-63.806,50.912l11.399,19.744c11.657-2.921,30.835-11.73,59.273-46.461,35.369-45.502,59.717-71.489,78.905-84.208,10.127-6.711,19.236-9.975,27.847-9.975.38,0,.758.031,1.137.044l-8.105-14.038c-3.4-2.077-7.528-4.141-12.54-4.141-17.709,0-46.734,27.178-94.111,88.123Z"/>
  <path class="cls-2" d="M136.466,157.79c35.368-45.502,59.716-71.488,78.906-84.207,4.566-3.028,8.917-5.316,13.118-6.957h-106.84l-62.085,107.534,17.406,30.147c11.635-2.864,30.877-11.562,59.496-46.516Z"/>
  <g>
    <path class="cls-2" d="M377.353,111.249v20.155h44.916v23.034h-44.916v34.695h-29.944v-100.918h78.316v23.034h-48.372Z"/>
    <path class="cls-2" d="M434.881,189.133v-81.419h24.158v81.419h-24.158Z"/>
    <path class="cls-2" d="M507.351,167.181h-12.776v21.952h-24.158v-81.419h37.979c21.836,0,34.379,10.454,34.379,28.921,0,12.079-4.878,20.906-13.705,25.901l16.492,26.597h-27.41l-10.802-21.952ZM508.397,148.598c7.201,0,11.382-3.949,11.382-11.266,0-7.085-4.181-11.034-11.382-11.034h-13.821v22.3h13.821Z"/>
    <path class="cls-2" d="M622.098,116.077l-8.943,18.583c-8.363-4.762-20.21-9.059-27.062-9.059-4.065,0-6.737,1.394-6.737,4.413,0,11.963,42.51,4.878,42.51,34.263,0,17.306-15.332,25.552-33.566,25.552-13.821,0-28.921-4.878-39.142-12.893l9.059-18.351c8.363,7.085,21.952,12.428,30.315,12.428,5.11,0,8.363-1.742,8.363-5.459,0-12.312-42.51-4.53-42.51-33.218,0-15.679,13.357-25.669,33.683-25.669,12.428,0,25.203,3.717,34.03,9.408Z"/>
    <path class="cls-2" d="M674.706,126.995v62.138h-24.274v-62.138h-23.578v-19.281h71.545v19.281h-23.694Z"/>
    <path class="cls-2" d="M800.172,105.203l-17.276,20.443c-6.335-8.062-15.692-13.389-24.042-13.389-13.677,0-24.042,11.085-24.042,25.914s10.365,26.057,24.042,26.057c7.774,0,17.132-4.607,24.042-11.661l17.276,18.427c-10.942,11.805-27.497,19.435-42.757,19.435-30.664,0-53.267-22.17-53.267-51.97,0-29.369,23.034-51.107,54.275-51.107,15.26,0,31.528,6.91,41.749,17.851Z"/>
    <path class="cls-2" d="M826.671,176.125l-4.878,13.008h-24.855l34.728-81.419h24.855l33.566,81.419h-25.784l-4.762-13.008h-32.87ZM843.397,131.873l-9.989,26.597h19.745l-9.756-26.597Z"/>
    <path class="cls-2" d="M954.309,168.924v20.209h-58.305v-81.419h24.158v61.209h34.147Z"/>
    <path class="cls-2" d="M1020.972,168.924v20.209h-58.305v-81.419h24.158v61.209h34.147Z"/>
  </g>
  <g>
    <path class="cls-2" d="M396.698,226.428h-15.182c-1.583-2.662-4.461-4.174-8.347-4.174-7.124,0-11.441,4.966-11.441,12.737,0,8.707,4.461,13.384,12.809,13.384,4.893,0,8.49-2.303,10.577-6.692h-14.175v-10.146h26.336v13.672c-3.023,7.412-10.866,15.615-24.106,15.615-15.543,0-25.76-10.649-25.76-25.832s10.145-25.76,25.688-25.76c12.809,0,21.587,6.62,23.601,17.197Z"/>
    <path class="cls-2" d="M425.83,209.735c12.593,0,18.925,7.195,18.925,16.262,0,6.62-3.598,12.376-11.153,14.679l11.441,19.788h-15.758l-10.074-18.708h-1.511v18.708h-14.103v-50.729h22.234ZM424.679,221.535h-6.98v10.578h6.98c3.814,0,5.756-1.871,5.756-5.325,0-3.166-1.942-5.253-5.756-5.253Z"/>
    <path class="cls-2" d="M475.471,260.967c-14.391,0-26.048-10.793-26.048-26.048s11.657-25.976,26.048-25.976c14.464,0,25.977,10.721,25.977,25.976s-11.585,26.048-25.977,26.048ZM475.471,247.872c7.267,0,11.657-5.11,11.657-12.952,0-7.988-4.389-13.024-11.657-13.024-7.339,0-11.657,5.037-11.657,13.024,0,7.843,4.317,12.952,11.657,12.952Z"/>
    <path class="cls-2" d="M507.553,209.735h14.031v29.43c0,5.253,2.375,8.562,7.699,8.562s7.844-3.31,7.844-8.562v-29.43h14.103v29.43c0,14.463-10.074,21.802-22.235,21.802-12.232,0-21.443-7.339-21.443-21.802v-29.43Z"/>
    <path class="cls-2" d="M580.075,243.338h-6.98v17.125h-14.103v-50.729h21.083c12.592,0,18.996,7.124,18.996,16.909,0,8.851-6.116,16.694-18.996,16.694ZM578.707,232.113c4.246,0,5.973-2.159,5.973-5.469,0-3.382-1.727-5.54-5.973-5.54h-5.612v11.009h5.612Z"/>
  </g>
  <rect class="cls-1" x="613.075" y="212.234" width="408.751" height="7.861"/>
</svg>