<?xml version="1.0" encoding="UTF-8"?>
<svg id="Layer_1" data-name="Layer 1" xmlns="http://www.w3.org/2000/svg" viewBox="0 0 180 180">
  <defs>
    <style>
      .cls-1 {
        fill: #112f72;
      }

      .cls-2 {
        fill: #1a4120;
      }
    </style>
  </defs>
  <path class="cls-2" d="M134.017,80.882c-1.269-.735-2.779-1.4-4.572-1.4-7.035,0-18.567,10.798-37.39,35.011-8.26,10.089-14.966,15.274-20.168,18.032h42.615l24.666-42.722-5.15-8.92Z"/>
  <path class="cls-1" d="M87.011,110.469c14.051-18.077,23.725-28.402,31.348-33.455,4.024-2.667,7.642-3.963,11.064-3.963.025,0,.05.003.074.003l-3.098-5.366-.041-.025c-1.372-.848-3.05-1.714-5.097-1.714-7.035,0-18.566,10.798-37.389,35.011-11.273,13.77-19.653,18.406-25.264,20.2l4.53,7.846c4.596-1.078,12.305-4.408,23.873-18.536Z"/>
  <path class="cls-1" d="M76.1,87.322c-11.332,13.842-19.738,18.454-25.35,20.227l4.529,7.844c4.631-1.161,12.251-4.66,23.549-18.459,14.052-18.078,23.725-28.402,31.348-33.455,4.023-2.666,7.642-3.963,11.063-3.963.151,0,.301.012.452.017l-3.22-5.577c-1.351-.825-2.991-1.645-4.982-1.645-7.036,0-18.567,10.798-37.39,35.011Z"/>
  <path class="cls-2" d="M71.057,83.299c14.051-18.078,23.725-28.402,31.349-33.455,1.814-1.203,3.543-2.112,5.212-2.764h-42.447l-24.666,42.722,6.915,11.977c4.623-1.138,12.267-4.594,23.637-18.481Z"/>
</svg>