<?xml version="1.0" encoding="UTF-8"?>
<svg id="Layer_2" data-name="Layer 2" xmlns="http://www.w3.org/2000/svg" viewBox="0 0 1774.69 265.77">
  <defs>
    <style>
      .cls-1 {
        fill: #fff;
      }
    </style>
  </defs>
  <g id="Layer_1-2" data-name="Layer 1">
    <g>
      <path class="cls-1" d="M287.85,104.05c-3.91-2.26-8.55-4.31-14.07-4.31-21.66,0-57.15,33.24-115.09,107.77-25.43,31.06-46.07,47.02-62.08,55.5h131.18l75.93-131.51-15.85-27.46h-.02Z"/>
      <path class="cls-1" d="M143.16,195.12c43.25-55.65,73.03-87.43,96.5-102.98,12.39-8.21,23.52-12.2,34.06-12.2h.23l-9.54-16.52-.13-.08c-4.22-2.61-9.39-5.28-15.69-5.28-21.66,0-57.15,33.24-115.09,107.77-34.7,42.39-60.5,56.66-77.77,62.18l13.94,24.15c14.15-3.32,37.88-13.57,73.49-57.06v.02Z"/>
      <path class="cls-1" d="M109.57,123.87c-34.88,42.61-60.76,56.8-78.03,62.26l13.94,24.15c14.26-3.57,37.71-14.34,72.49-56.82,43.25-55.65,73.03-87.43,96.5-102.98,12.38-8.21,23.52-12.2,34.06-12.2.46,0,.93.04,1.39.05l-9.91-17.17c-4.16-2.54-9.21-5.06-15.34-5.06-21.66,0-57.15,33.24-115.09,107.77h-.01Z"/>
      <path class="cls-1" d="M94.05,111.49C137.3,55.84,167.08,24.06,190.54,8.51c5.58-3.7,10.91-6.5,16.04-8.51H75.93L0,131.51l21.29,36.87c14.23-3.5,37.76-14.14,72.76-56.89Z"/>
    </g>
    <g>
      <path class="cls-1" d="M353.45,182.76c-6.67-2.84-12.01-7.04-16-12.61s-6.1-12.27-6.32-20.11h29.86c.44,4.43,1.91,7.81,4.43,10.14,2.51,2.33,5.8,3.49,9.84,3.49s7.44-.99,9.85-2.98c2.4-1.99,3.61-4.74,3.61-8.27,0-2.95-.96-5.4-2.87-7.33-1.92-1.93-4.27-3.52-7.06-4.77s-6.76-2.67-11.9-4.26c-7.44-2.39-13.51-4.77-18.21-7.16-4.7-2.39-8.75-5.91-12.14-10.57s-5.09-10.74-5.09-18.24c0-11.13,3.88-19.86,11.65-26.16,7.77-6.31,17.89-9.46,30.35-9.46s22.91,3.15,30.68,9.46c7.76,6.31,11.92,15.08,12.47,26.33h-30.36c-.22-3.86-1.59-6.9-4.1-9.12-2.52-2.22-5.74-3.32-9.68-3.32-3.39,0-6.13.94-8.2,2.81-2.08,1.88-3.12,4.58-3.12,8.1,0,3.86,1.75,6.88,5.25,9.03,3.5,2.16,8.97,4.49,16.41,6.99,7.44,2.62,13.48,5.11,18.13,7.5s8.67,5.85,12.06,10.4c3.39,4.55,5.09,10.4,5.09,17.56s-1.67,13.01-5,18.58c-3.34,5.57-8.18,10-14.52,13.29-6.35,3.3-13.84,4.94-22.48,4.94s-15.97-1.42-22.64-4.26h.01Z"/>
      <path class="cls-1" d="M519.17,66.18v23.35h-30.52v96.3h-28.06v-96.3h-30.52v-23.35h89.1Z"/>
      <path class="cls-1" d="M593,185.83l-23.96-45.17h-6.73v45.17h-28.06v-119.65h47.09c9.08,0,16.82,1.65,23.22,4.94,6.4,3.3,11.18,7.81,14.36,13.55,3.17,5.74,4.76,12.13,4.76,19.18,0,7.95-2.16,15.06-6.48,21.31s-10.69,10.68-19.12,13.29l26.58,47.38h-31.67,0ZM562.32,120.04h17.39c5.14,0,9-1.3,11.57-3.92,2.57-2.61,3.86-6.31,3.86-11.08s-1.29-8.12-3.86-10.74c-2.57-2.61-6.43-3.92-11.57-3.92h-17.39s0,29.66,0,29.66Z"/>
      <path class="cls-1" d="M808.44,66.18v119.65h-28.06v-71.76l-25.76,71.76h-22.64l-25.92-71.93v71.93h-28.06v-119.65h33.14l32.32,82.84,32-82.84s32.98,0,32.98,0Z"/>
      <path class="cls-1" d="M857.66,89.53v24.2h37.57v22.5h-37.57v26.25h42.5v23.35h-70.55v-119.65h70.55v23.35h-42.5Z"/>
      <path class="cls-1" d="M921.98,94.22c4.92-9.26,11.79-16.47,20.59-21.65,8.8-5.17,18.79-7.76,29.94-7.76,13.67,0,25.38,3.75,35.11,11.25,9.73,7.5,16.24,17.73,19.53,30.68h-30.85c-2.3-5-5.55-8.8-9.76-11.42-4.21-2.61-9-3.92-14.36-3.92-8.64,0-15.64,3.13-21,9.37-5.36,6.25-8.04,14.6-8.04,25.06s2.68,18.81,8.04,25.05c5.36,6.25,12.36,9.37,21,9.37,5.36,0,10.15-1.3,14.36-3.92,4.21-2.61,7.47-6.42,9.76-11.42h30.85c-3.28,12.95-9.79,23.15-19.53,30.59-9.74,7.44-21.44,11.16-35.11,11.16-11.16,0-21.14-2.58-29.94-7.75-8.81-5.17-15.67-12.36-20.59-21.56-4.92-9.2-7.38-19.71-7.38-31.53s2.46-22.36,7.38-31.62v.02Z"/>
      <path class="cls-1" d="M1145.13,66.18v119.65h-28.06v-49.26h-43.65v49.26h-28.06v-119.65h28.06v46.87h43.65v-46.87s28.06,0,28.06,0Z"/>
      <path class="cls-1" d="M1237.99,164.7h-42.99l-6.89,21.13h-29.37l41.68-119.65h32.49l41.68,119.65h-29.7l-6.89-21.13h-.01ZM1230.78,142.2l-14.28-43.8-14.11,43.8h28.39Z"/>
      <path class="cls-1" d="M1391.25,185.83h-28.06l-46.93-73.8v73.8h-28.06v-119.65h28.06l46.93,74.14v-74.14h28.06v119.65h0Z"/>
      <path class="cls-1" d="M1440.63,66.18v119.65h-28.06v-119.65h28.06Z"/>
      <path class="cls-1" d="M1464.59,94.22c4.92-9.26,11.79-16.47,20.59-21.65,8.8-5.17,18.79-7.76,29.94-7.76,13.67,0,25.38,3.75,35.11,11.25s16.24,17.73,19.53,30.68h-30.85c-2.3-5-5.55-8.8-9.76-11.42-4.21-2.61-9-3.92-14.36-3.92-8.64,0-15.64,3.13-21,9.37-5.36,6.25-8.04,14.6-8.04,25.06s2.68,18.81,8.04,25.05c5.36,6.25,12.36,9.37,21,9.37,5.36,0,10.15-1.3,14.36-3.92,4.21-2.61,7.47-6.42,9.76-11.42h30.85c-3.28,12.95-9.79,23.15-19.53,30.59-9.74,7.44-21.44,11.16-35.11,11.16-11.16,0-21.14-2.58-29.94-7.75-8.81-5.17-15.67-12.36-20.59-21.56-4.92-9.2-7.38-19.71-7.38-31.53s2.46-22.36,7.38-31.62v.02Z"/>
      <path class="cls-1" d="M1659.68,164.7h-42.99l-6.89,21.13h-29.37l41.68-119.65h32.49l41.68,119.65h-29.7l-6.89-21.13h-.01ZM1652.46,142.2l-14.28-43.8-14.11,43.8h28.39Z"/>
      <path class="cls-1" d="M1737.94,163.33h36.75v22.5h-64.81v-119.65h28.06v97.15Z"/>
    </g>
    <g>
      <path class="cls-1" d="M398.44,224.75v10.22h22.77v11.68h-22.77v17.59h-15.18v-51.16h39.7v11.68h-24.52Z"/>
      <path class="cls-1" d="M426.43,264.54v-38.59h11.45v38.59h-11.45Z"/>
      <path class="cls-1" d="M462.39,254.08h-6.06v10.4h-11.45v-38.59h18c10.35,0,16.3,4.95,16.3,13.71,0,5.73-2.31,9.91-6.5,12.28l7.82,12.61h-12.99l-5.12-10.4h0ZM462.89,245.27c3.41,0,5.39-1.87,5.39-5.34s-1.98-5.23-5.39-5.23h-6.55v10.57h6.55Z"/>
      <path class="cls-1" d="M515.29,230.57l-4.24,8.81c-3.96-2.26-9.58-4.29-12.83-4.29-1.93,0-3.19.66-3.19,2.09,0,5.67,20.15,2.31,20.15,16.24,0,8.2-7.27,12.11-15.91,12.11-6.55,0-13.71-2.31-18.55-6.11l4.29-8.7c3.96,3.36,10.4,5.89,14.37,5.89,2.42,0,3.96-.83,3.96-2.59,0-5.84-20.15-2.15-20.15-15.74,0-7.43,6.33-12.17,15.97-12.17,5.89,0,11.95,1.76,16.13,4.46h0Z"/>
      <path class="cls-1" d="M539.39,235.54v29.45h-11.51v-29.45h-11.18v-9.14h33.91v9.14h-11.23.01Z"/>
      <path class="cls-1" d="M603.39,222.38l-8.8,10.41c-3.23-4.1-7.99-6.82-12.24-6.82-6.96,0-12.24,5.64-12.24,13.19s5.28,13.27,12.24,13.27c3.96,0,8.72-2.35,12.24-5.94l8.8,9.38c-5.57,6.01-14,9.9-21.77,9.9-15.61,0-27.12-11.29-27.12-26.46s11.73-26.02,27.63-26.02c7.77,0,16.05,3.52,21.26,9.09h0Z"/>
      <path class="cls-1" d="M616.17,258.67l-2.31,6.17h-11.78l16.46-38.59h11.78l15.91,38.59h-12.22l-2.26-6.17h-15.58ZM624.09,237.7l-4.73,12.61h9.36l-4.62-12.61h-.01Z"/>
      <path class="cls-1" d="M676.21,254.86v9.58h-27.64v-38.59h11.45v29.01h16.19Z"/>
      <path class="cls-1" d="M706.69,254.91v9.58h-27.64v-38.59h11.45v29.01h16.19Z"/>
      <path class="cls-1" d="M359.76,254.23h-19.09l-3.52,10.11h-6.03l15.82-45.2h6.59l15.76,45.2h-6.03l-3.52-10.11h.02ZM358.13,249.41l-7.91-22.96-7.91,22.96h15.82Z"/>
      <g>
        <path class="cls-1" d="M715.52,229.88c1.92-3.54,4.55-6.32,7.88-8.32s7.02-3,11.08-3c4.77,0,8.94,1.2,12.5,3.59s6.15,5.78,7.79,10.18h-6.84c-1.21-2.74-2.96-4.85-5.24-6.33-2.28-1.48-5.01-2.22-8.19-2.22s-5.8.74-8.23,2.22-4.33,3.58-5.71,6.29c-1.38,2.72-2.07,5.9-2.07,9.56s.69,6.77,2.07,9.49,3.29,4.82,5.71,6.29c2.43,1.48,5.17,2.22,8.23,2.22s5.91-.73,8.19-2.19,4.03-3.56,5.24-6.29h6.84c-1.63,4.35-4.23,7.71-7.79,10.08s-7.72,3.56-12.5,3.56c-4.06,0-7.76-.99-11.08-2.97-3.33-1.98-5.96-4.73-7.88-8.25-1.93-3.52-2.89-7.5-2.89-11.94s.96-8.43,2.89-11.97h0Z"/>
        <path class="cls-1" d="M771.97,262.1c-3.35-1.98-6-4.74-7.94-8.28-1.95-3.54-2.92-7.53-2.92-11.97s.97-8.43,2.92-11.97c1.95-3.54,4.59-6.3,7.94-8.28s7.05-2.97,11.12-2.97,7.83.99,11.18,2.97,5.99,4.73,7.91,8.25,2.89,7.52,2.89,12-.96,8.48-2.89,12c-1.93,3.52-4.56,6.27-7.91,8.25s-7.08,2.97-11.18,2.97-7.77-.99-11.12-2.97ZM791.34,257.7c2.45-1.48,4.37-3.59,5.78-6.33s2.1-5.91,2.1-9.52-.7-6.84-2.1-9.56c-1.4-2.72-3.32-4.82-5.75-6.29-2.43-1.48-5.19-2.22-8.29-2.22s-5.86.74-8.29,2.22-4.34,3.58-5.75,6.29c-1.4,2.72-2.1,5.9-2.1,9.56s.7,6.78,2.1,9.52c1.4,2.74,3.33,4.85,5.78,6.33s5.2,2.22,8.26,2.22,5.81-.74,8.26-2.22h0Z"/>
        <path class="cls-1" d="M857,219.47v45.14h-5.71v-33.66l-14.44,33.66h-4.02l-14.51-33.72v33.72h-5.71v-45.14h6.15l16.08,37.31,16.07-37.31h6.09Z"/>
        <path class="cls-1" d="M892.19,241.88c-2.49,2.5-6.29,3.75-11.4,3.75h-8.41v18.98h-5.71v-45.47h14.13c4.94,0,8.7,1.24,11.27,3.72s3.86,5.68,3.86,9.59-1.25,6.93-3.74,9.43ZM887.83,238.59c1.51-1.44,2.26-3.48,2.26-6.13,0-5.61-3.1-8.41-9.29-8.41h-8.41v16.7h8.41c3.18,0,5.53-.72,7.03-2.15h0Z"/>
        <path class="cls-1" d="M928.9,254.5h-19.09l-3.52,10.11h-6.03l15.82-45.2h6.59l15.76,45.2h-6.03l-3.52-10.11h.02ZM927.26,249.68l-7.91-22.96-7.91,22.96h15.82,0Z"/>
        <path class="cls-1" d="M979.76,264.61h-5.71l-22.98-36.2v36.2h-5.71v-45.53h5.71l22.98,36.14v-36.14h5.71v45.53Z"/>
        <path class="cls-1" d="M1020.14,219.15l-14.25,28.31v17.16h-5.71v-17.16l-14.32-28.31h6.34l10.8,23.03,10.8-23.03h6.34Z"/>
      </g>
    </g>
  </g>
</svg>